<svg width="2125" height="1024" viewBox="0 0 2125 1024" fill="none" xmlns="http://www.w3.org/2000/svg">
<rect width="2125" height="1024" fill="#E5E5E5"/>
<g id="Desktop - 1">
<rect width="1440" height="1024" transform="translate(685)" fill="white"/>
<g id="undraw_coding_6mjf 1" clip-path="url(#clip0)">
<g id="toprightboxes">
<path id="Vector" opacity="0.2" d="M1686.63 255H1634.63V282H1686.63V255Z" fill="#6C63FF"/>
<path id="Vector_2" opacity="0.2" d="M1723.63 286H1671.63V313H1723.63V286Z" fill="#6C63FF"/>
<path id="Vector_3" opacity="0.2" d="M1623.63 257H1571.63V284H1623.63V257Z" fill="#6C63FF"/>
<path id="Vector_4" opacity="0.2" d="M1790.63 317H1738.63V344H1790.63V317Z" fill="#6C63FF"/>
<path id="Vector_5" opacity="0.2" d="M1727.63 319H1675.63V346H1727.63V319Z" fill="#6C63FF"/>
<path id="Vector_6" opacity="0.2" d="M1660.63 288H1608.63V315H1660.63V288Z" fill="#6C63FF"/>
</g>
<g id="shoulderboxes">
<path id="Vector_7" opacity="0.2" d="M1725.63 451H1673.63V478H1725.63V451Z" fill="#6C63FF"/>
<path id="Vector_8" opacity="0.2" d="M1729.63 484H1677.63V511H1729.63V484Z" fill="#6C63FF"/>
<path id="Vector_9" opacity="0.2" d="M1787.63 525H1735.63V552H1787.63V525Z" fill="#6C63FF"/>
<path id="Vector_10" opacity="0.2" d="M1724.63 527H1672.63V554H1724.63V527Z" fill="#6C63FF"/>
</g>
<g id="BigFlower">
<path id="Vector_11" d="M1040.75 444C1040.75 444 1114.04 517.29 1072.67 626C1031.3 734.71 1143.58 915.64 1143.58 915.64C1143.58 915.64 1142.38 915.46 1140.15 915.07C989.63 888.5 914.84 716.35 998.58 588.5C1029.66 540.91 1055.2 485.14 1040.75 444Z" fill="#6C63FF"/>
<path id="Vector_12" d="M1040.75 444C1040.75 444 1082.12 533.84 1040.75 607.12C999.38 680.4 1033.66 886.12 1143.59 915.64" stroke="#535461" stroke-width="2" stroke-miterlimit="10"/>
</g>
<g id="SmallFlower">
<path id="Vector_13" d="M910.21 740.42C910.21 740.42 993.84 727.1 1001.46 802.05C1009.08 877 1162.28 887.39 1162.28 887.39C1162.28 887.39 1161.28 888.07 1159.41 889.3C1032.92 972.3 912.01 942.19 930.24 831.94C937.01 790.95 936.45 749.78 910.21 740.42Z" fill="#6C63FF"/>
<path id="Vector_14" d="M910.21 740.42C910.21 740.42 975.12 754.67 969.79 813.69C964.46 872.71 1066.19 943.5 1162.28 887.39" stroke="#535461" stroke-width="2" stroke-miterlimit="10"/>
</g>
<g id="LeftBoxes3">
<path id="Vector_15" opacity="0.2" d="M962.63 452H910.63V479H962.63V452Z" fill="#6C63FF"/>
<path id="Vector_16" opacity="0.2" d="M999.63 483H947.63V510H999.63V483Z" fill="#6C63FF"/>
<path id="Vector_17" opacity="0.2" d="M1003.63 516H951.63V543H1003.63V516Z" fill="#6C63FF"/>
</g>
<g id="MidLeftBoxes">
<path id="Vector_18" opacity="0.2" d="M1280.63 168H1228.63V195H1280.63V168Z" fill="#6C63FF"/>
<path id="Vector_19" opacity="0.2" d="M1317.63 199H1265.63V226H1317.63V199Z" fill="#6C63FF"/>
<path id="Vector_20" opacity="0.2" d="M1127.63 382H1075.63V409H1127.63V382Z" fill="#6C63FF"/>
<path id="Vector_21" opacity="0.2" d="M1164.63 413H1112.63V440H1164.63V413Z" fill="#6C63FF"/>
<path id="Vector_22" opacity="0.2" d="M1263.63 396H1211.63V423H1263.63V396Z" fill="#6C63FF"/>
<path id="Vector_23" opacity="0.2" d="M1168.63 446H1116.63V473H1168.63V446Z" fill="#6C63FF"/>
</g>
<g id="bottomrightboxes">
<path id="Vector_24" opacity="0.2" d="M1690.63 666H1638.63V693H1690.63V666Z" fill="#6C63FF"/>
<path id="Vector_25" opacity="0.2" d="M1760.63 666H1708.63V693H1760.63V666Z" fill="#6C63FF"/>
</g>
<g id="Restofsvg">
<path id="Vector_26" d="M1630.65 559.11C1627.28 540.372 1625.22 521.423 1624.47 502.4C1623.81 486.733 1618.31 471.656 1608.74 459.234C1599.17 446.813 1585.99 437.657 1571.01 433.02C1565.55 431.34 1559.54 429.77 1552.9 428.36C1494.7 416 1477.02 426.79 1475.01 428.21C1473.31 425.116 1471.83 421.904 1470.58 418.6C1470.48 418.26 1470.39 417.92 1470.29 417.6C1481.81 405.316 1488.83 389.493 1490.2 372.71C1499.91 362.87 1505.58 350.99 1505.58 338.2C1505.58 327.2 1501.38 316.88 1494.03 307.95V290.57C1494.03 270.528 1486.07 251.306 1471.9 237.134C1457.72 222.962 1438.5 215 1418.46 215H1412.33C1402.41 215 1392.58 216.955 1383.41 220.752C1374.24 224.55 1365.91 230.117 1358.89 237.134C1351.88 244.151 1346.31 252.482 1342.51 261.651C1338.71 270.819 1336.76 280.646 1336.76 290.57V309.3C1330.09 317.91 1326.31 327.74 1326.31 338.18C1326.31 350.7 1331.75 362.34 1341.09 372.06C1342.37 389.458 1349.71 405.857 1361.83 418.4C1362.24 421.24 1362.66 424.29 1363.07 427.51L1258.97 449.5C1258.97 449.5 1218.83 451.15 1192.97 504.5C1171.1 549.69 1127.58 665.79 1114.69 700.35C1112.36 706.61 1111.04 710.2 1111.04 710.2C1111.04 710.2 1111.47 709.77 1112.28 709.03L1111.04 712.4C1111.04 712.4 1111.67 711.76 1112.87 710.71C1111.05 725.17 1110.79 750 1129.73 753.09C1145.61 755.68 1186.53 756.75 1217.44 757.18H1219.58C1240.07 757.45 1255.66 757.45 1255.66 757.45V757.18H1588.1V753.77C1588.1 750.677 1587.48 747.616 1586.27 744.77L1586.73 744.21C1588.51 746.559 1589.69 749.304 1590.18 752.21C1590.14 752.493 1590.09 752.773 1590.02 753.05L1590.22 752.54C1590.3 753.448 1590.23 754.363 1590.02 755.25C1590.02 755.25 1632.67 645.36 1632.21 579.74C1632.33 572.83 1631.81 565.923 1630.65 559.11ZM1364.8 442.36C1364.25 439.225 1363.9 436.059 1363.74 432.88C1363.74 432.88 1363.74 432.82 1363.74 432.79C1364.11 435.88 1364.47 439.08 1364.8 442.36ZM1235.58 678.4V704.59L1219.18 708.1L1235.58 678.4Z" fill="url(#paint0_linear)"/>
<path id="Vector_27" d="M1414.24 403.14C1461.81 403.14 1500.38 376.64 1500.38 343.95C1500.38 311.26 1461.81 284.76 1414.24 284.76C1366.67 284.76 1328.1 311.26 1328.1 343.95C1328.1 376.64 1366.67 403.14 1414.24 403.14Z" fill="#E14B5A"/>
<path id="Vector_28" d="M1359.02 401.29C1359.02 401.29 1377.02 495.36 1359.02 520.73C1341.02 546.1 1414.02 556.14 1414.02 556.14L1489.58 528.66L1500.15 461.01C1500.15 461.01 1454.15 435.11 1463.68 382.79L1359.02 401.29Z" fill="#F7C4A7"/>
<path id="Vector_29" d="M1582.04 718.39C1582.04 718.39 1586.8 739 1560.9 742.7C1545.61 744.95 1530.05 744.764 1514.82 742.15L1509.11 690.38H1569.36L1582.04 718.39Z" fill="#F7C4A7"/>
<path id="Vector_30" d="M1124.7 692.01C1124.7 692.01 1113.26 738.5 1139.16 742.7C1165.06 746.9 1260.16 746.93 1260.16 746.93V691.93L1217.1 701.13L1176.68 662.37L1124.7 692.01Z" fill="#F7C4A7"/>
<path id="Vector_31" opacity="0.1" d="M1364.58 431.68L1263.37 453.08C1263.37 453.08 1224.79 454.67 1199.95 505.93C1175.11 557.19 1121.2 703.59 1121.2 703.59C1121.2 703.59 1167.2 657.08 1221.09 706.76L1257.03 641.76L1249.1 744.82H1527.58V696.19C1527.58 696.19 1585.71 727.37 1581.49 744.81C1581.49 744.81 1631.24 616.63 1620.49 558.38C1617.25 540.372 1615.27 522.162 1614.55 503.88C1613.92 488.823 1608.64 474.331 1599.44 462.394C1590.24 450.457 1577.57 441.66 1563.17 437.21C1557.93 435.6 1552.17 434.09 1545.77 432.74C1486.05 420.06 1470.77 432.74 1470.77 432.74C1470.77 432.74 1459.2 470.38 1459.41 487.44C1459.67 509.37 1428.23 523.91 1428.23 523.91C1428.23 523.91 1381.72 512.81 1379.61 503.83C1377.5 494.85 1360.86 442.25 1364.58 431.68Z" fill="black"/>
<path id="Vector_32" opacity="0.1" d="M1468 425.08C1463.75 413.044 1462.8 400.089 1465.24 387.56L1360.58 406.05C1360.58 406.05 1362.09 413.96 1363.8 425.81C1370.56 432.827 1378.68 438.395 1387.66 442.176C1396.64 445.957 1406.3 447.872 1416.05 447.803C1425.79 447.735 1435.42 445.685 1444.35 441.779C1453.28 437.873 1461.32 432.191 1467.98 425.08H1468Z" fill="black"/>
<path id="Vector_33" opacity="0.1" d="M1388.94 305.43L1389.04 305.37C1386.77 306.21 1384.55 307.157 1382.4 308.21C1370.31 314.126 1360.13 323.316 1353 334.734C1345.88 346.153 1342.11 359.342 1342.11 372.8C1342.11 373.38 1342.11 373.96 1342.11 374.54C1344.34 374.48 1346.54 373.952 1348.56 372.99C1366.08 364.81 1376.56 339.79 1380.72 322.34C1382.22 316.09 1383.63 309.05 1388.94 305.43Z" fill="black"/>
<path id="Vector_34" opacity="0.1" d="M1443.95 307.44C1438.26 304.827 1432.25 302.974 1426.08 301.93C1431.14 303.095 1435.66 305.935 1438.91 309.99C1440.5 312.154 1441.82 314.505 1442.84 316.99C1433.27 312.808 1422.91 310.753 1412.48 310.969C1402.04 311.185 1391.77 313.666 1382.39 318.24C1386.9 328.13 1400.89 333.52 1410.23 337.13C1420.46 341.077 1430.79 344.687 1441.23 347.96L1431.99 340.46L1452.86 343.78C1453.08 339.627 1452.59 335.465 1451.4 331.48C1455.4 334.7 1460.7 335.78 1465.04 338.48C1473.17 343.61 1476.56 353.48 1480.99 362.03C1482.16 364.29 1483.54 366.6 1485.65 368.03C1484.8 355.112 1480.47 342.664 1473.13 332C1465.79 321.336 1455.71 312.851 1443.95 307.44Z" fill="black"/>
<path id="Vector_35" d="M1388.94 303.8L1389.04 303.74C1386.77 304.58 1384.55 305.527 1382.4 306.58C1370.31 312.496 1360.13 321.686 1353 333.104C1345.88 344.523 1342.11 357.712 1342.11 371.17C1342.11 371.75 1342.11 372.33 1342.11 372.91C1344.34 372.85 1346.54 372.322 1348.56 371.36C1366.08 363.18 1376.56 338.16 1380.72 320.71C1382.22 314.5 1383.63 307.43 1388.94 303.8Z" fill="#632652"/>
<path id="Vector_36" d="M1443.95 305.82C1438.26 303.207 1432.25 301.354 1426.08 300.31C1431.14 301.475 1435.66 304.315 1438.91 308.37C1440.5 310.534 1441.82 312.885 1442.84 315.37C1433.27 311.188 1422.91 309.133 1412.48 309.349C1402.04 309.565 1391.77 312.046 1382.39 316.62C1386.9 326.51 1400.89 331.9 1410.23 335.51C1420.46 339.457 1430.79 343.067 1441.23 346.34L1431.99 338.84L1452.86 342.16C1453.08 338.007 1452.59 333.845 1451.4 329.86C1455.4 333.08 1460.7 334.16 1465.04 336.86C1473.17 341.99 1476.56 351.86 1480.99 360.41C1482.16 362.67 1483.54 364.98 1485.65 366.41C1484.8 353.492 1480.47 341.044 1473.13 330.38C1465.79 319.716 1455.71 311.231 1443.95 305.82Z" fill="#632652"/>
<path id="Vector_37" opacity="0.1" d="M1333.91 359.32C1333.91 359.32 1407.91 267.32 1493.52 359.32L1486.12 338.71C1486.12 338.71 1445.95 280.05 1417.42 292.71C1388.89 305.37 1360.87 314.38 1360.87 314.38L1333.91 359.32Z" fill="black"/>
<path id="Vector_38" d="M1333.91 357.69C1333.91 357.69 1407.91 265.69 1493.52 357.69L1486.12 337.08C1486.12 337.08 1445.95 278.42 1417.42 291.08C1388.89 303.74 1360.87 312.75 1360.87 312.75L1333.91 357.69Z" fill="#E14B5A"/>
<path id="Vector_39" opacity="0.1" d="M1273.13 555.88C1273.13 555.88 1257.28 598.16 1279.47 636.21C1301.66 674.26 1259.92 690.12 1259.92 690.12" fill="black"/>
<path id="Vector_40" opacity="0.1" d="M1529.98 517.83C1529.98 517.83 1557.46 552.71 1539.49 583.89C1521.52 615.07 1522.58 690.12 1522.58 690.12" fill="black"/>
<path id="Vector_41" d="M1248.82 721.3H1554.29C1561.02 721.3 1567.47 723.973 1572.23 728.731C1576.99 733.489 1579.66 739.941 1579.66 746.67H1223.46C1223.46 739.943 1226.13 733.492 1230.89 728.734C1235.64 723.977 1242.09 721.303 1248.82 721.3Z" fill="#535461"/>
<path id="Vector_42" d="M1401.29 663.96C1411.8 663.96 1420.32 655.44 1420.32 644.93C1420.32 634.42 1411.8 625.9 1401.29 625.9C1390.78 625.9 1382.26 634.42 1382.26 644.93C1382.26 655.44 1390.78 663.96 1401.29 663.96Z" fill="white"/>
<path id="Vector_43" d="M1507.66 311.57H1500.36V352.96H1507.66V311.57Z" fill="#6A5C99"/>
<path id="Vector_44" d="M1490.62 338.35C1497.29 338.35 1503.69 341.001 1508.41 345.719C1513.13 350.438 1515.78 356.837 1515.78 363.51V365.13C1515.78 371.803 1513.13 378.202 1508.41 382.921C1503.69 387.639 1497.29 390.29 1490.62 390.29V338.35Z" fill="#FFD037"/>
<path id="Vector_45" d="M1319.02 353.77H1326.32V312.38H1319.02V353.77Z" fill="#6A5C99"/>
<path id="Vector_46" d="M1336.06 391.1C1329.39 391.1 1322.99 388.449 1318.27 383.731C1313.55 379.012 1310.9 372.613 1310.9 365.94V364.32C1310.9 361.016 1311.55 357.744 1312.82 354.692C1314.08 351.639 1315.93 348.866 1318.27 346.529C1320.61 344.193 1323.38 342.34 1326.43 341.075C1329.48 339.811 1332.76 339.16 1336.06 339.16V391.1Z" fill="#FFD037"/>
<path id="Vector_47" d="M1329.57 387.85C1329.57 390.987 1332.11 393.53 1335.25 393.53C1338.39 393.53 1340.93 390.987 1340.93 387.85V342.4C1340.93 339.263 1338.39 336.72 1335.25 336.72C1332.11 336.72 1329.57 339.263 1329.57 342.4V387.85Z" fill="#6A5C99"/>
<path id="Vector_48" d="M1413.71 225.57C1433.75 225.57 1452.97 233.532 1467.15 247.704C1481.32 261.876 1489.28 281.098 1489.28 301.14V333.38H1338.14V301.14C1338.14 281.098 1346.1 261.876 1360.27 247.704C1374.45 233.532 1393.67 225.57 1413.71 225.57Z" fill="#E14B5A"/>
<path id="Vector_49" d="M1364.58 429.57L1263.37 450.97C1263.37 450.97 1224.79 452.56 1199.95 503.82C1175.11 555.08 1121.19 701.5 1121.19 701.5C1121.19 701.5 1167.19 654.99 1221.08 704.67L1257.02 639.67L1249.09 742.7H1527.58V694.08C1527.58 694.08 1585.71 725.26 1581.49 742.7C1581.49 742.7 1631.24 614.52 1620.49 556.27C1617.25 538.262 1615.27 520.052 1614.55 501.77C1613.92 486.713 1608.64 472.221 1599.44 460.284C1590.24 448.347 1577.57 439.55 1563.17 435.1C1557.93 433.49 1552.17 431.98 1545.77 430.63C1486.05 417.95 1470.77 430.63 1470.77 430.63C1470.77 430.63 1459.2 468.27 1459.41 485.33C1459.67 507.26 1428.23 521.8 1428.23 521.8C1428.23 521.8 1381.72 510.7 1379.61 501.72C1377.5 492.74 1360.86 440.14 1364.58 429.57Z" fill="#575988"/>
<path id="Vector_50" d="M1485.85 371.17C1485.77 390.029 1478.28 408.1 1464.99 421.487C1451.71 434.873 1433.7 442.504 1414.84 442.732C1395.98 442.96 1377.79 435.768 1364.19 422.707C1350.58 409.646 1342.66 391.761 1342.12 372.91C1342.12 372.33 1342.12 371.75 1342.12 371.17C1342.12 357.712 1345.89 344.523 1353.01 333.104C1360.14 321.686 1370.32 312.496 1382.41 306.58C1384.56 305.527 1386.78 304.58 1389.05 303.74C1400.87 299.393 1413.63 298.208 1426.05 300.3C1441.97 303.011 1456.51 311.009 1467.33 323.002C1478.15 334.996 1484.6 350.285 1485.66 366.4C1485.79 367.98 1485.85 369.57 1485.85 371.17Z" fill="#F7C4A7"/>
<path id="Vector_51" d="M1279.9 546.89H1523.22C1528.34 546.89 1533.41 547.899 1538.14 549.859C1542.88 551.819 1547.18 554.691 1550.8 558.313C1554.42 561.934 1557.29 566.234 1559.25 570.965C1561.21 575.697 1562.22 580.768 1562.22 585.89V727.11H1240.9V585.89C1240.9 575.547 1245.01 565.627 1252.32 558.313C1259.64 550.999 1269.56 546.89 1279.9 546.89Z" fill="#535461"/>
<path id="Vector_52" opacity="0.1" d="M1338.14 316.2C1338.14 316.2 1410.86 243.52 1489.29 314.87" stroke="black" stroke-miterlimit="10"/>
<path id="Vector_53" d="M1497.11 341.6C1497.11 338.463 1494.57 335.92 1491.43 335.92C1488.29 335.92 1485.75 338.463 1485.75 341.6V387.05C1485.75 390.187 1488.29 392.73 1491.43 392.73C1494.57 392.73 1497.11 390.187 1497.11 387.05V341.6Z" fill="#6A5C99"/>
<path id="Vector_54" d="M1499.5 267.33C1489.61 246.77 1468.07 221.91 1421.64 219.92V219.86H1421.08L1404.63 220.64V220.72C1358.51 222.84 1337.07 247.61 1327.21 268.1C1320.64 281.99 1317.16 297.136 1316.99 312.5L1322.67 312.36L1328.35 312.23C1328.6 298.552 1331.74 285.082 1337.58 272.71C1350.1 246.99 1373.14 233.32 1406.05 232.05L1420.6 231.24C1453.53 232.5 1476.58 246.19 1489.09 271.9C1494.94 284.276 1498.09 297.754 1498.34 311.44L1504.02 311.57L1509.7 311.71C1509.54 296.355 1506.06 281.216 1499.5 267.33Z" fill="#FFD037"/>
<path id="Vector_55" d="M1758.99 747H984.28V955H1758.99V747Z" fill="#D6D6E3"/>
<path id="Vector_56" opacity="0.1" d="M1758.99 761H984.28V788H1758.99V761Z" fill="black"/>
<path id="Vector_57" d="M1810.94 744H932.31V771H1810.94V744Z" fill="#D6D6E3"/>
</g>
</g>
</g>
<path id="Vector_58" opacity="0.2" d="M0 362.916C0 362.916 83.63 349.596 91.25 424.546C98.87 499.496 252.07 509.886 252.07 509.886C252.07 509.886 251.07 510.566 249.2 511.796C122.71 594.796 1.8 564.686 20.03 454.436C26.8 413.446 26.24 372.276 0 362.916Z" fill="#F5F5F5"/>
<defs>
<linearGradient id="paint0_linear" x1="1371.63" y1="757.5" x2="1371.63" y2="215" gradientUnits="userSpaceOnUse">
<stop stop-color="#808080" stop-opacity="0.25"/>
<stop offset="0.54" stop-color="#808080" stop-opacity="0.12"/>
<stop offset="1" stop-color="#808080" stop-opacity="0.1"/>
</linearGradient>
<clipPath id="clip0">
<rect width="900.94" height="787" fill="white" transform="translate(910 168)"/>
</clipPath>
</defs>
</svg>
